<svg  viewBox="0 0 26 29" fill="currentColor" xmlns="http://www.w3.org/2000/svg">
<path d="M0.833313 24.8333C0.833313 27.6967 7.31331 29 13.3333 29C19.3533 29 25.8333 27.6967 25.8333 24.8333C25.8333 22.56 21.8983 21.5333 19.0633 21.09L21 19.1667C22.5151 17.6516 23.547 15.7213 23.9651 13.6198C24.3832 11.5184 24.1687 9.34009 23.3488 7.36051C22.5288 5.38092 21.1403 3.68893 19.3588 2.49851C17.5772 1.30809 15.4826 0.672699 13.34 0.672699C11.1973 0.672699 9.10276 1.30809 7.32121 2.49851C5.53965 3.68893 4.15112 5.38092 3.3312 7.36051C2.51127 9.34009 2.29679 11.5184 2.71487 13.6198C3.13295 15.7213 4.16482 17.6516 5.67998 19.1667L7.60998 21.0967C4.76831 21.5333 0.833313 22.56 0.833313 24.8333ZM15 7.33335C15 7.17859 15.0431 7.02688 15.1244 6.89524C15.2058 6.76359 15.3222 6.6572 15.4606 6.58799C15.5991 6.51878 15.754 6.48948 15.9082 6.50338C16.0623 6.51728 16.2095 6.57382 16.3333 6.66668C17.3652 7.44091 18.2221 8.42423 18.8479 9.55236C19.4738 10.6805 19.8544 11.928 19.965 13.2133C20.0016 13.6082 19.8952 14.0031 19.6651 14.3261C19.4351 14.6491 19.0968 14.8788 18.7116 14.9733L16.6666 15.485V17.3333C16.6666 17.5544 16.5788 17.7663 16.4226 17.9226C16.2663 18.0789 16.0543 18.1667 15.8333 18.1667C15.6123 18.1667 15.4003 18.0789 15.2441 17.9226C15.0878 17.7663 15 17.5544 15 17.3333V7.33335ZM7.49998 9.00001V7.33335C7.49998 7.11233 7.58778 6.90037 7.74406 6.74409C7.90034 6.58781 8.1123 6.50001 8.33331 6.50001C8.55433 6.50001 8.76629 6.58781 8.92257 6.74409C9.07885 6.90037 9.16665 7.11233 9.16665 7.33335V9.00001C9.16996 9.28742 9.24867 9.56892 9.39492 9.81636C9.54116 10.0638 9.7498 10.2685 9.99998 10.41V7.33335C9.99998 7.11233 10.0878 6.90037 10.2441 6.74409C10.4003 6.58781 10.6123 6.50001 10.8333 6.50001C11.0543 6.50001 11.2663 6.58781 11.4226 6.74409C11.5788 6.90037 11.6666 7.11233 11.6666 7.33335V10.41C11.9168 10.2685 12.1255 10.0638 12.2717 9.81636C12.418 9.56892 12.4967 9.28742 12.5 9.00001V7.33335C12.5 7.11233 12.5878 6.90037 12.7441 6.74409C12.9003 6.58781 13.1123 6.50001 13.3333 6.50001C13.5543 6.50001 13.7663 6.58781 13.9226 6.74409C14.0788 6.90037 14.1666 7.11233 14.1666 7.33335V9.00001C14.1639 9.73686 13.9171 10.452 13.4647 11.0337C13.0124 11.6154 12.3801 12.0308 11.6666 12.215V17.3333C11.6666 17.5544 11.5788 17.7663 11.4226 17.9226C11.2663 18.0789 11.0543 18.1667 10.8333 18.1667C10.6123 18.1667 10.4003 18.0789 10.2441 17.9226C10.0878 17.7663 9.99998 17.5544 9.99998 17.3333V12.215C9.28653 12.0308 8.65421 11.6154 8.20189 11.0337C7.74958 10.452 7.50274 9.73686 7.49998 9.00001ZM9.08998 22.5767L11.565 25.0533C11.7971 25.2857 12.0728 25.47 12.3762 25.5957C12.6797 25.7214 13.0049 25.7861 13.3333 25.7861C13.6618 25.7861 13.987 25.7214 14.2904 25.5957C14.5938 25.47 14.8695 25.2857 15.1016 25.0533L17.5766 22.5767C22.1566 23.1067 24.1666 24.3133 24.1666 24.8333C24.1666 25.58 20.4816 27.3333 13.3333 27.3333C6.18498 27.3333 2.49998 25.58 2.49998 24.8333C2.49998 24.3133 4.50998 23.1067 9.08998 22.5767Z" fill="currentColor"/>
</svg>
