<svg viewBox="0 0 23 28" fill="currentColor" xmlns="http://www.w3.org/2000/svg">
<path fill-rule="evenodd" clip-rule="evenodd" d="M1.39486 0.989257C1.82002 0.573825 2.41469 0.302891 3.54011 0.155614C4.69887 0.0027788 6.23278 0 8.4336 0H14.5664C16.7673 0 18.3012 0.0027788 19.4599 0.155614C20.5853 0.302891 21.18 0.573825 21.6052 0.989257C22.0289 1.40608 22.3054 1.98963 22.4569 3.09143C22.6125 4.22657 22.6153 5.72991 22.6153 7.88488V18.7764H5.03372C3.77909 18.7764 2.92321 18.7751 2.1896 18.9682C1.5338 19.1405 0.925245 19.4211 0.384766 19.7907V7.88627C0.384766 5.72991 0.387544 4.22657 0.543158 3.09143C0.694603 1.98963 0.971095 1.40608 1.39486 0.989257ZM5.36857 5.25751C5.06687 5.25455 4.77632 5.37137 4.56065 5.58235C4.34498 5.79333 4.2218 6.08125 4.21814 6.38293C4.21814 7.00539 4.73222 7.50974 5.36718 7.50974H17.6329C17.9343 7.51234 18.2245 7.39535 18.4399 7.18441C18.6552 6.97347 18.7782 6.68576 18.7819 6.38432C18.7786 6.08264 18.6558 5.79458 18.4404 5.58334C18.225 5.3721 17.9345 5.25492 17.6329 5.25751H5.36857ZM4.21814 11.6404C4.21814 11.0194 4.73222 10.515 5.36718 10.515H13.0325C13.3342 10.5121 13.6248 10.6289 13.8404 10.8399C14.0561 11.0508 14.1793 11.3388 14.183 11.6404C14.1797 11.9424 14.0566 12.2306 13.8409 12.4419C13.6252 12.6532 13.3345 12.7702 13.0325 12.7673H5.36718C5.06572 12.7699 4.77553 12.6529 4.56016 12.4419C4.34479 12.231 4.2218 11.9419 4.21814 11.6404Z" fill="currentColor"/>
<path d="M5.18937 21.2405C3.6902 21.2405 3.16639 21.2503 2.76346 21.3559C2.22682 21.4946 1.73189 21.7615 1.32119 22.1337C0.910488 22.5059 0.596306 22.9723 0.40564 23.4928C0.42787 24.0235 0.465384 24.4917 0.522349 24.9086C0.673795 26.0104 0.950287 26.5939 1.37406 27.0107C1.79921 27.4262 2.39388 27.6971 3.5193 27.8444C4.67806 27.9972 6.21197 28 8.41279 28H14.5456C16.7464 28 18.2804 27.9972 19.4391 27.8458C20.5645 27.6971 21.1592 27.4262 21.5844 27.0107C21.8845 26.7148 22.1123 26.3355 22.2721 25.7464H5.34637C5.04492 25.749 4.75472 25.632 4.53935 25.4211C4.32398 25.2101 4.20099 24.9224 4.19733 24.621C4.19733 23.9985 4.71141 23.4942 5.34637 23.4942H22.5528C22.5806 22.8467 22.5903 22.1048 22.5945 21.2405H5.18937Z" fill="currentColor"/>
</svg>
