<svg width="72" height="72" viewBox="0 0 72 72" fill="none" xmlns="http://www.w3.org/2000/svg">
<rect width="72" height="72" rx="36" fill="#FFF5F6"/>
<path d="M23.4501 50.9999H48.5501C51.1168 50.9999 52.7168 48.2166 51.4335 45.9999L38.8835 24.3166C37.6001 22.0999 34.4001 22.0999 33.1168 24.3166L20.5668 45.9999C19.2835 48.2166 20.8835 50.9999 23.4501 50.9999ZM36.0001 39.3332C35.0835 39.3332 34.3335 38.5832 34.3335 37.6666V34.3332C34.3335 33.4166 35.0835 32.6666 36.0001 32.6666C36.9168 32.6666 37.6668 33.4166 37.6668 34.3332V37.6666C37.6668 38.5832 36.9168 39.3332 36.0001 39.3332ZM37.6668 45.9999H34.3335V42.6666H37.6668V45.9999Z" fill="currentColor"/>
</svg>
